<svg width="119" height="32" viewBox="0 0 119 32" fill="none" xmlns="http://www.w3.org/2000/svg">
<path d="M0.247911 0.487837H6.53461L13.1745 16.6873H13.457L20.0969 0.487837H26.3836V24.5986H21.439V8.90542H21.2389L14.9993 24.4809H11.6323L5.39265 8.84656H5.19251V24.5986H0.247911V0.487837ZM33.5857 31.3798C32.9499 31.3798 32.3535 31.3288 31.7962 31.2267C31.2468 31.1326 30.7916 31.0109 30.4306 30.8618L31.5607 27.118C32.1494 27.2985 32.6792 27.3966 33.1501 27.4123C33.6288 27.428 34.0409 27.3182 34.3862 27.0827C34.7394 26.8472 35.0259 26.447 35.2456 25.8819L35.54 25.1166L29.0531 6.51554H34.3274L38.0711 19.7953H38.2595L42.0386 6.51554H47.3481L40.3197 26.5529C39.9823 27.5261 39.5231 28.3738 38.9423 29.0959C38.3694 29.8258 37.6434 30.387 36.7643 30.7794C35.8853 31.1797 34.8258 31.3798 33.5857 31.3798Z" fill="#355DB6"/>
<path d="M50.0088 24.5986V0.487837H59.6625C61.4363 0.487837 62.9158 0.750764 64.1009 1.27662C65.286 1.80247 66.1768 2.53239 66.7733 3.46637C67.3698 4.3925 67.6681 5.4599 67.6681 6.66858C67.6681 7.61041 67.4797 8.43843 67.103 9.15265C66.7262 9.85903 66.2082 10.4398 65.549 10.895C64.8975 11.3424 64.1519 11.6603 63.3121 11.8486V12.0841C64.2304 12.1233 65.0898 12.3823 65.8904 12.8611C66.6988 13.3399 67.3541 14.0109 67.8564 14.8743C68.3588 15.7298 68.6099 16.7501 68.6099 17.9352C68.6099 19.2145 68.292 20.3565 67.6563 21.3611C67.0284 22.3579 66.0984 23.1466 64.8661 23.7274C63.6339 24.3082 62.1152 24.5986 60.31 24.5986H50.0088ZM55.1064 20.431H59.2623C60.6829 20.431 61.7189 20.1603 62.3703 19.6187C63.0217 19.0693 63.3474 18.3394 63.3474 17.429C63.3474 16.7618 63.1865 16.1732 62.8648 15.663C62.543 15.1529 62.0838 14.7526 61.4873 14.4622C60.8987 14.1718 60.1962 14.0266 59.38 14.0266H55.1064V20.431ZM55.1064 10.5772H58.8855C59.5841 10.5772 60.2041 10.4555 60.7456 10.2122C61.295 9.96106 61.7267 9.60787 62.0407 9.15265C62.3624 8.69744 62.5233 8.15196 62.5233 7.51623C62.5233 6.64504 62.2133 5.94259 61.5933 5.40889C60.9811 4.87518 60.1099 4.60833 58.9797 4.60833H55.1064V10.5772ZM76.848 0.487837V24.5986H71.8327V0.487837H76.848ZM89.0358 24.9518C87.2071 24.9518 85.6256 24.5633 84.2913 23.7863C82.9649 23.0014 81.9407 21.9105 81.2186 20.5135C80.4966 19.1086 80.1355 17.48 80.1355 15.6277C80.1355 13.7598 80.4966 12.1273 81.2186 10.7302C81.9407 9.32532 82.9649 8.23437 84.2913 7.45736C85.6256 6.67251 87.2071 6.28008 89.0358 6.28008C90.8645 6.28008 92.4421 6.67251 93.7685 7.45736C95.1027 8.23437 96.1309 9.32532 96.853 10.7302C97.575 12.1273 97.9361 13.7598 97.9361 15.6277C97.9361 17.48 97.575 19.1086 96.853 20.5135C96.1309 21.9105 95.1027 23.0014 93.7685 23.7863C92.4421 24.5633 90.8645 24.9518 89.0358 24.9518ZM89.0593 21.0668C89.8913 21.0668 90.5859 20.8313 91.1431 20.3604C91.7004 19.8816 92.1203 19.2302 92.4028 18.4061C92.6932 17.582 92.8384 16.6441 92.8384 15.5924C92.8384 14.5407 92.6932 13.6028 92.4028 12.7787C92.1203 11.9546 91.7004 11.3032 91.1431 10.8244C90.5859 10.3456 89.8913 10.1063 89.0593 10.1063C88.2196 10.1063 87.5132 10.3456 86.9402 10.8244C86.3751 11.3032 85.9474 11.9546 85.657 12.7787C85.3744 13.6028 85.2332 14.5407 85.2332 15.5924C85.2332 16.6441 85.3744 17.582 85.657 18.4061C85.9474 19.2302 86.3751 19.8816 86.9402 20.3604C87.5132 20.8313 88.2196 21.0668 89.0593 21.0668ZM109.344 31.7565C107.719 31.7565 106.326 31.5328 105.165 31.0855C104.011 30.646 103.093 30.0455 102.41 29.2842C101.727 28.5229 101.283 27.6674 101.079 26.7177L105.718 26.0938C105.859 26.4548 106.083 26.7923 106.389 27.1062C106.695 27.4202 107.099 27.6713 107.602 27.8597C108.112 28.0559 108.732 28.154 109.462 28.154C110.553 28.154 111.451 27.8872 112.158 27.3535C112.872 26.8276 113.229 25.9447 113.229 24.7046V21.3964H113.017C112.797 21.8987 112.468 22.3736 112.028 22.8209C111.589 23.2683 111.024 23.6333 110.333 23.9158C109.642 24.1984 108.818 24.3396 107.861 24.3396C106.503 24.3396 105.267 24.0257 104.152 23.3978C103.045 22.7621 102.163 21.7928 101.503 20.4899C100.852 19.1792 100.526 17.5232 100.526 15.5218C100.526 13.4733 100.86 11.7623 101.527 10.3888C102.194 9.0153 103.081 7.98714 104.187 7.30432C105.302 6.62149 106.522 6.28008 107.849 6.28008C108.861 6.28008 109.709 6.45275 110.392 6.79808C111.075 7.13557 111.624 7.5594 112.04 8.06955C112.464 8.57186 112.789 9.06632 113.017 9.55293H113.205V6.51554H118.185V24.7752C118.185 26.3135 117.809 27.6007 117.055 28.6367C116.302 29.6727 115.258 30.4497 113.924 30.9677C112.597 31.4936 111.071 31.7565 109.344 31.7565ZM109.45 20.5723C110.258 20.5723 110.941 20.3722 111.498 19.9719C112.063 19.5638 112.495 18.983 112.793 18.2295C113.1 17.4682 113.253 16.5578 113.253 15.4982C113.253 14.4387 113.103 13.5204 112.805 12.7434C112.507 11.9585 112.075 11.3503 111.51 10.9186C110.945 10.4869 110.258 10.2711 109.45 10.2711C108.626 10.2711 107.931 10.4948 107.366 10.9421C106.801 11.3816 106.373 11.9938 106.083 12.7787C105.792 13.5635 105.647 14.4701 105.647 15.4982C105.647 16.5421 105.792 17.4447 106.083 18.206C106.381 18.9594 106.809 19.5442 107.366 19.9601C107.931 20.3683 108.626 20.5723 109.45 20.5723Z" fill="#E03E87"/>
</svg>
