<svg width="119" height="33" viewBox="0 0 119 33" fill="none" xmlns="http://www.w3.org/2000/svg">
<path d="M0.0955672 0.889204H6.38227L13.0222 17.0886H13.3047L19.9446 0.889204H26.2313V25H21.2867V9.30679H21.0866L14.8469 24.8823H11.4799L5.2403 9.24793H5.04016V25H0.0955672V0.889204ZM33.4333 31.7812C32.7976 31.7812 32.2011 31.7301 31.6439 31.6281C31.0945 31.5339 30.6392 31.4123 30.2782 31.2632L31.4084 27.5194C31.997 27.6999 32.5268 27.798 32.9977 27.8137C33.4765 27.8294 33.8886 27.7195 34.2339 27.4841C34.5871 27.2486 34.8735 26.8483 35.0933 26.2832L35.3876 25.518L28.9008 6.9169H34.175L37.9188 20.1967H38.1072L41.8862 6.9169H47.1958L40.1674 26.9543C39.8299 27.9275 39.3708 28.7752 38.79 29.4972C38.217 30.2271 37.491 30.7883 36.612 31.1807C35.733 31.581 34.6734 31.7812 33.4333 31.7812Z" fill="#F6F3F4"/>
<path d="M49.8565 25V0.889204H59.5102C61.284 0.889204 62.7634 1.15213 63.9486 1.67799C65.1337 2.20384 66.0245 2.93376 66.621 3.86773C67.2175 4.79387 67.5157 5.86127 67.5157 7.06995C67.5157 8.01178 67.3274 8.8398 66.9506 9.55402C66.5739 10.2604 66.0559 10.8412 65.3966 11.2964C64.7452 11.7438 63.9996 12.0616 63.1598 12.25V12.4855C64.0781 12.5247 64.9375 12.7837 65.738 13.2625C66.5464 13.7412 67.2018 14.4123 67.7041 15.2756C68.2064 16.1311 68.4576 17.1514 68.4576 18.3366C68.4576 19.6159 68.1397 20.7578 67.504 21.7625C66.8761 22.7592 65.946 23.548 64.7138 24.1288C63.4816 24.7096 61.9629 25 60.1577 25H49.8565ZM54.9541 20.8324H59.1099C60.5305 20.8324 61.5665 20.5616 62.218 20.0201C62.8694 19.4707 63.1951 18.7408 63.1951 17.8303C63.1951 17.1632 63.0342 16.5746 62.7124 16.0644C62.3906 15.5543 61.9315 15.154 61.335 14.8636C60.7463 14.5732 60.0439 14.428 59.2276 14.428H54.9541V20.8324ZM54.9541 10.9785H58.7332C59.4317 10.9785 60.0517 10.8569 60.5933 10.6136C61.1427 10.3624 61.5744 10.0092 61.8883 9.55402C62.2101 9.0988 62.371 8.55333 62.371 7.9176C62.371 7.0464 62.061 6.34396 61.4409 5.81025C60.8288 5.27655 59.9576 5.0097 58.8274 5.0097H54.9541V10.9785ZM76.6956 0.889204V25H71.6804V0.889204H76.6956ZM88.8835 25.3532C87.0547 25.3532 85.4733 24.9647 84.139 24.1877C82.8126 23.4028 81.7884 22.3119 81.0663 20.9148C80.3442 19.5099 79.9832 17.8814 79.9832 16.0291C79.9832 14.1611 80.3442 12.5286 81.0663 11.1316C81.7884 9.72669 82.8126 8.63574 84.139 7.85873C85.4733 7.07387 87.0547 6.68145 88.8835 6.68145C90.7122 6.68145 92.2897 7.07387 93.6161 7.85873C94.9504 8.63574 95.9786 9.72669 96.7006 11.1316C97.4227 12.5286 97.7837 14.1611 97.7837 16.0291C97.7837 17.8814 97.4227 19.5099 96.7006 20.9148C95.9786 22.3119 94.9504 23.4028 93.6161 24.1877C92.2897 24.9647 90.7122 25.3532 88.8835 25.3532ZM88.907 21.4681C89.739 21.4681 90.4335 21.2327 90.9908 20.7618C91.548 20.283 91.9679 19.6316 92.2505 18.8075C92.5409 17.9834 92.6861 17.0455 92.6861 15.9938C92.6861 14.9421 92.5409 14.0042 92.2505 13.1801C91.9679 12.356 91.548 11.7045 90.9908 11.2258C90.4335 10.747 89.739 10.5076 88.907 10.5076C88.0672 10.5076 87.3608 10.747 86.7879 11.2258C86.2228 11.7045 85.795 12.356 85.5047 13.1801C85.2221 14.0042 85.0808 14.9421 85.0808 15.9938C85.0808 17.0455 85.2221 17.9834 85.5047 18.8075C85.795 19.6316 86.2228 20.283 86.7879 20.7618C87.3608 21.2327 88.0672 21.4681 88.907 21.4681ZM109.192 32.1579C107.567 32.1579 106.174 31.9342 105.012 31.4868C103.859 31.0473 102.94 30.4469 102.257 29.6856C101.575 28.9243 101.131 28.0688 100.927 27.1191L105.566 26.4952C105.707 26.8562 105.931 27.1937 106.237 27.5076C106.543 27.8216 106.947 28.0727 107.449 28.2611C107.959 28.4573 108.579 28.5554 109.309 28.5554C110.4 28.5554 111.299 28.2885 112.005 27.7548C112.72 27.229 113.077 26.346 113.077 25.106V21.7978H112.865C112.645 22.3001 112.315 22.7749 111.876 23.2223C111.436 23.6697 110.871 24.0346 110.181 24.3172C109.49 24.5997 108.666 24.741 107.708 24.741C106.35 24.741 105.114 24.4271 104 23.7992C102.893 23.1634 102.01 22.1941 101.351 20.8913C100.699 19.5806 100.374 17.9245 100.374 15.9231C100.374 13.8747 100.707 12.1637 101.374 10.7902C102.042 9.41667 102.928 8.38851 104.035 7.70568C105.15 7.02286 106.37 6.68145 107.696 6.68145C108.709 6.68145 109.557 6.85412 110.239 7.19945C110.922 7.53694 111.472 7.96076 111.888 8.47092C112.311 8.97323 112.637 9.46769 112.865 9.9543H113.053V6.9169H118.033V25.1766C118.033 26.7149 117.656 28.0021 116.903 29.0381C116.149 30.0741 115.106 30.8511 113.771 31.3691C112.445 31.895 110.918 32.1579 109.192 32.1579ZM109.298 20.9737C110.106 20.9737 110.789 20.7735 111.346 20.3733C111.911 19.9651 112.343 19.3844 112.641 18.6309C112.947 17.8696 113.1 16.9591 113.1 15.8996C113.1 14.84 112.951 13.9217 112.653 13.1447C112.355 12.3599 111.923 11.7516 111.358 11.3199C110.793 10.8883 110.106 10.6724 109.298 10.6724C108.473 10.6724 107.779 10.8961 107.214 11.3435C106.649 11.783 106.221 12.3952 105.931 13.1801C105.64 13.9649 105.495 14.8714 105.495 15.8996C105.495 16.9434 105.64 17.846 105.931 18.6073C106.229 19.3608 106.657 19.9455 107.214 20.3615C107.779 20.7696 108.473 20.9737 109.298 20.9737Z" fill="#FF54A1"/>
</svg>
